
<svg version="1.1" id="Layer_1" xmlns="http://www.w3.org/2000/svg" xmlns:xlink="http://www.w3.org/1999/xlink" x="0px" y="0px"
	 viewBox="0 0 512 512" style="enable-background:new 0 0 512 512;" xml:space="preserve">
<path  d="M512,0h-40v16h24v32h16V0z M432,0h-40v16h40V0z M352,0h-40v16h40V0z M272,0h-40v16h40V0z M192,0h-40
	v16h40V0z M112,0H72v16h40V0z M32,0H0v16h32V0z M16,48H0v40h16V48z M16,128H0v40h16V128z M16,208H0v40h16V208z M16,288H0v40h16V288z
	 M16,368H0v40h16V368z M16,448H0v40h16V448z M56,496H16v16h40V496z M136,496H96v16h40V496z M216,496h-40v16h40V496z M296,496h-40v16
	h40V496z M376,496h-40v16h40V496z M456,496h-40v16h40V496z M512,488h-16v8l0,0v16h16V488z M512,408h-16v40h16V408z M512,328h-16v40
	h16V328z M512,248h-16v40h16V248z M512,168h-16v40h16V168z M512,88h-16v40h16V88z"/>
<g>
	<rect x="244" y="175.976"  width="24" height="160.08"/>
	<rect x="175.976" y="244"  width="160.08" height="24"/>
</g>

</svg>
