<svg version="1.2" baseProfile="tiny"
	 xmlns="http://www.w3.org/2000/svg" xmlns:xlink="http://www.w3.org/1999/xlink" x="0px" y="0px" viewBox="0 0 50 50"
	 overflow="scroll" xml:space="preserve">
<path fill="#FFFFFF" d="M47.2,43.9L36,32.7C39,29,40.4,25,40.4,20.3c0-11.1-9.1-20.2-20.2-20.1c-11,0-20.1,9-20.1,20.1
	c0,11.1,9,20.2,20.1,20.2c4.2,0,7.6-0.9,11-3.2L43,49.1c0.7,0.7,1.9,1,3,0.9c1.3-0.2,2.4-1.2,2.7-2.5C49.1,45.9,48.1,44.8,47.2,43.9
	z M19.8,6.3c8-0.3,14.6,6.3,14.4,14.4C34,27.8,27.8,34,20.7,34.2c-8,0.3-14.6-6.3-14.4-14.4C6.6,12.7,12.7,6.6,19.8,6.3z"/>
</svg>
